<svg width="24" height="24" viewBox="0 0 24 24" fill="none" xmlns="http://www.w3.org/2000/svg">
<path fill-rule="evenodd" clip-rule="evenodd" d="M15 10C15 12.7614 12.7614 15 10 15C7.23858 15 5 12.7614 5 10C5 7.23858 7.23858 5 10 5C12.7614 5 15 7.23858 15 10ZM14.8094 18.7696C13.3824 19.5539 11.7433 20 10 20C4.47715 20 0 15.5228 0 10C0 4.47715 4.47715 0 10 0C15.5228 0 20 4.47715 20 10C20 11.9658 19.4328 13.799 18.4531 15.3451L23.9979 20.5703L20.3591 23.9994L14.8094 18.7696Z" fill="black"/>
</svg>
