<svg width="114" height="30" viewBox="0 0 114 30" fill="none" xmlns="http://www.w3.org/2000/svg">
<path d="M51.3013 24H48.5723V11.8486H51.3013V24ZM48.4038 8.69287C48.4038 8.2736 48.5348 7.92546 48.7969 7.64844C49.0664 7.37142 49.4482 7.23291 49.9424 7.23291C50.4365 7.23291 50.8184 7.37142 51.0879 7.64844C51.3574 7.92546 51.4922 8.2736 51.4922 8.69287C51.4922 9.10465 51.3574 9.44906 51.0879 9.72607C50.8184 9.99561 50.4365 10.1304 49.9424 10.1304C49.4482 10.1304 49.0664 9.99561 48.7969 9.72607C48.5348 9.44906 48.4038 9.10465 48.4038 8.69287ZM54.0357 17.8345C54.0357 15.9478 54.4774 14.4429 55.3609 13.3198C56.2518 12.1893 57.431 11.624 58.8985 11.624C60.2835 11.624 61.3729 12.1069 62.1665 13.0728L62.2901 11.8486H64.7495V23.6294C64.7495 25.2241 64.2516 26.4819 63.2559 27.4028C62.2676 28.3237 60.9312 28.7842 59.2466 28.7842C58.3557 28.7842 57.4834 28.597 56.6299 28.2227C55.7839 27.8558 55.14 27.3729 54.6983 26.7739L55.9898 25.1343C56.8283 26.13 57.8615 26.6279 59.0894 26.6279C59.9953 26.6279 60.7103 26.3809 61.2344 25.8867C61.7585 25.4001 62.0205 24.6813 62.0205 23.7305V22.9106C61.2344 23.7866 60.1862 24.2246 58.876 24.2246C57.4535 24.2246 56.2892 23.6593 55.3833 22.5288C54.4849 21.3983 54.0357 19.8335 54.0357 17.8345ZM56.7534 18.0703C56.7534 19.2907 57.0005 20.2528 57.4946 20.9565C57.9963 21.6528 58.6888 22.001 59.5723 22.001C60.6729 22.001 61.489 21.5293 62.0205 20.5859V15.2402C61.5039 14.3193 60.6953 13.8589 59.5947 13.8589C58.6963 13.8589 57.9963 14.2145 57.4946 14.9258C57.0005 15.637 56.7534 16.6852 56.7534 18.0703ZM74.1548 14.3418C73.7954 14.2819 73.4248 14.252 73.043 14.252C71.7927 14.252 70.9504 14.7311 70.5162 15.6895V24H67.7871V11.8486H70.3926L70.46 13.2075C71.1189 12.1519 72.0323 11.624 73.2002 11.624C73.5896 11.624 73.9115 11.6764 74.1661 11.7812L74.1548 14.3418ZM83.0323 24C82.9125 23.7679 82.8077 23.3898 82.7178 22.8657C81.8493 23.7716 80.7862 24.2246 79.5284 24.2246C78.308 24.2246 77.3122 23.8765 76.5411 23.1802C75.7699 22.4839 75.3843 21.6229 75.3843 20.5972C75.3843 19.3019 75.8635 18.3099 76.8218 17.6211C77.7877 16.9248 79.1653 16.5767 80.9546 16.5767H82.628V15.7793C82.628 15.1504 82.452 14.6488 82.1002 14.2744C81.7483 13.8926 81.2129 13.7017 80.4942 13.7017C79.8728 13.7017 79.3637 13.8589 78.9669 14.1733C78.57 14.4803 78.3716 14.8734 78.3716 15.3525H75.6426C75.6426 14.6862 75.8635 14.0648 76.3052 13.4883C76.747 12.9043 77.3459 12.4476 78.1021 12.1182C78.8658 11.7887 79.7156 11.624 80.6514 11.624C82.074 11.624 83.2082 11.9834 84.0543 12.7021C84.9003 13.4134 85.3345 14.4167 85.357 15.7119V21.1924C85.357 22.2855 85.5105 23.1577 85.8174 23.8091V24H83.0323ZM80.0338 22.0347C80.5728 22.0347 81.0782 21.9036 81.5499 21.6416C82.029 21.3796 82.3884 21.0277 82.628 20.5859V18.2949H81.1568C80.1461 18.2949 79.3861 18.4709 78.877 18.8228C78.3679 19.1746 78.1133 19.6725 78.1133 20.3164C78.1133 20.8405 78.2855 21.2598 78.6299 21.5742C78.9818 21.8812 79.4498 22.0347 80.0338 22.0347ZM99.086 18.0479C99.086 19.9271 98.6593 21.4282 97.8057 22.5513C96.9522 23.6668 95.8067 24.2246 94.3692 24.2246C93.0365 24.2246 91.9696 23.7866 91.1685 22.9106V28.6719H88.4395V11.8486H90.9552L91.0675 13.084C91.8686 12.1107 92.9579 11.624 94.3355 11.624C95.8179 11.624 96.9784 12.1781 97.817 13.2861C98.663 14.3867 99.086 15.9178 99.086 17.8794V18.0479ZM96.3682 17.812C96.3682 16.5991 96.1249 15.637 95.6383 14.9258C95.1591 14.2145 94.4703 13.8589 93.5719 13.8589C92.4563 13.8589 91.6552 14.3193 91.1685 15.2402V20.6309C91.6627 21.5742 92.4713 22.0459 93.5943 22.0459C94.4628 22.0459 95.1404 21.6978 95.627 21.0015C96.1212 20.2977 96.3682 19.2345 96.3682 17.812ZM104.325 13.1738C105.216 12.1406 106.343 11.624 107.705 11.624C110.296 11.624 111.61 13.1027 111.647 16.0601V24H108.918V16.1611C108.918 15.3226 108.735 14.7311 108.368 14.3867C108.008 14.0348 107.477 13.8589 106.773 13.8589C105.68 13.8589 104.864 14.3455 104.325 15.3188V24H101.596V6.75H104.325V13.1738Z" fill="black"/>
<path d="M29 4C29 1.79086 30.7909 0 33 0C35.2091 0 37 1.79086 37 4V24H29V4Z" fill="#3DB9BA"/>
<path d="M37 8C37 5.79086 38.7909 4 41 4C43.2091 4 45 5.79086 45 8V24H37V8Z" fill="#FF777B"/>
<path d="M12.0391 18.0479C12.0391 19.9271 11.6123 21.4282 10.7588 22.5513C9.90527 23.6668 8.75977 24.2246 7.32227 24.2246C5.98958 24.2246 4.92269 23.7866 4.12158 22.9106V28.6719H1.39258V11.8486H3.9082L4.02051 13.084C4.82161 12.1107 5.91097 11.624 7.28857 11.624C8.771 11.624 9.93148 12.1781 10.77 13.2861C11.616 14.3867 12.0391 15.9178 12.0391 17.8794V18.0479ZM9.32129 17.812C9.32129 16.5991 9.07796 15.637 8.59131 14.9258C8.11214 14.2145 7.42334 13.8589 6.5249 13.8589C5.40934 13.8589 4.60824 14.3193 4.12158 15.2402V20.6309C4.61572 21.5742 5.42432 22.0459 6.54736 22.0459C7.41585 22.0459 8.09342 21.6978 8.58008 21.0015C9.07422 20.2977 9.32129 19.2345 9.32129 17.812ZM14.0772 17.812C14.0772 16.6216 14.313 15.5509 14.7847 14.6001C15.2564 13.6418 15.919 12.908 16.7725 12.3989C17.626 11.8823 18.6068 11.624 19.7149 11.624C21.3545 11.624 22.6835 12.1519 23.7017 13.2075C24.7274 14.2632 25.2814 15.6632 25.3638 17.4077L25.375 18.0479C25.375 19.2458 25.1429 20.3164 24.6787 21.2598C24.222 22.2031 23.5632 22.9331 22.7022 23.4497C21.8487 23.9663 20.8604 24.2246 19.7373 24.2246C18.0228 24.2246 16.6489 23.6556 15.6157 22.5176C14.59 21.3721 14.0772 19.8485 14.0772 17.9468V17.812ZM16.8062 18.0479C16.8062 19.2982 17.0645 20.279 17.5811 20.9902C18.0977 21.694 18.8164 22.0459 19.7373 22.0459C20.6582 22.0459 21.3732 21.6865 21.8823 20.9678C22.3989 20.249 22.6572 19.1971 22.6572 17.812C22.6572 16.5841 22.3915 15.6108 21.8599 14.8921C21.3358 14.1733 20.6208 13.814 19.7149 13.814C18.8239 13.814 18.1164 14.1696 17.5923 14.8809C17.0682 15.5846 16.8062 16.6403 16.8062 18.0479Z" fill="black"/>
</svg>
