<svg width="86" height="122" viewBox="0 0 86 122" fill="none" xmlns="http://www.w3.org/2000/svg">
<circle cx="43" cy="43" r="43" fill="#F0F0F0"/>
<path d="M30.3756 115.117H35.3522V117H28.0319V105.625H30.3756V115.117ZM39.4481 117H37.1825V108.547H39.4481V117ZM37.0497 106.359C37.0497 106.021 37.1617 105.742 37.3856 105.523C37.6148 105.305 37.9247 105.195 38.3153 105.195C38.7007 105.195 39.008 105.305 39.2372 105.523C39.4664 105.742 39.5809 106.021 39.5809 106.359C39.5809 106.703 39.4637 106.984 39.2294 107.203C39.0002 107.422 38.6955 107.531 38.3153 107.531C37.9351 107.531 37.6278 107.422 37.3934 107.203C37.1643 106.984 37.0497 106.703 37.0497 106.359ZM43.9034 108.547L43.9738 109.523C44.5779 108.768 45.3878 108.391 46.4034 108.391C47.2993 108.391 47.9659 108.654 48.4034 109.18C48.8409 109.706 49.0649 110.492 49.0753 111.539V117H46.8175V111.594C46.8175 111.115 46.7133 110.768 46.505 110.555C46.2967 110.336 45.9503 110.227 45.4659 110.227C44.8305 110.227 44.354 110.497 44.0363 111.039V117H41.7784V108.547H43.9034ZM54.3744 113.609L53.5619 114.422V117H51.3041V105H53.5619V111.648L53.9994 111.086L56.1634 108.547H58.8744L55.8197 112.07L59.14 117H56.5462L54.3744 113.609Z" fill="black"/>
<rect x="53.8284" y="21.8281" width="4" height="27" transform="rotate(45 53.8284 21.8281)" fill="black"/>
<rect x="46.0503" y="45.1641" width="4" height="23" transform="rotate(45 46.0503 45.1641)" fill="black"/>
<rect x="64.4351" y="32.4336" width="4" height="23" transform="rotate(45 64.4351 32.4336)" fill="black"/>
<rect x="32.6152" y="37.3867" width="4" height="19" transform="rotate(45 32.6152 37.3867)" fill="black"/>
<rect x="56.6569" y="24.6562" width="11" height="4" transform="rotate(45 56.6569 24.6562)" fill="black"/>
<rect x="24.837" y="50.8203" width="11" height="4" transform="rotate(45 24.837 50.8203)" fill="black"/>
<rect x="40.3934" y="40.9219" width="5" height="4" transform="rotate(45 40.3934 40.9219)" fill="black"/>
<rect x="46.0503" y="39.5078" width="8" height="4" transform="rotate(45 46.0503 39.5078)" fill="black"/>
</svg>
