<svg width="60" height="60" viewBox="0 0 60 60" fill="none" xmlns="http://www.w3.org/2000/svg">
<path fill-rule="evenodd" clip-rule="evenodd" d="M0 30C0 13.4315 13.4315 0 30 0C46.5685 0 60 13.4315 60 30C60 46.5685 46.5685 60 30 60C13.4315 60 0 46.5685 0 30Z" fill="white"/>
<path fill-rule="evenodd" clip-rule="evenodd" d="M13 30.5C13 20.835 20.835 13 30.5 13C40.165 13 48 20.835 48 30.5C48 40.165 40.165 48 30.5 48C20.835 48 13 40.165 13 30.5Z" fill="#3B5998"/>
<path fill-rule="evenodd" clip-rule="evenodd" d="M31.9074 40.0396V30.5187H34.5356L34.8839 27.2377H31.9074L31.9118 25.5956C31.9118 24.7399 31.9932 24.2813 33.2222 24.2813H34.8653V21H32.2367C29.0794 21 27.9681 22.5916 27.9681 25.2682V27.2381H26V30.5191H27.9681V40.0396H31.9074Z" fill="white"/>
</svg>
