<svg width="68" height="68" viewBox="0 0 68 68" fill="none" xmlns="http://www.w3.org/2000/svg">
<g filter="url(#filter0_dd)">
<path fill-rule="evenodd" clip-rule="evenodd" d="M4 30C4 13.4315 17.4315 0 34 0C50.5685 0 64 13.4315 64 30C64 46.5685 50.5685 60 34 60C17.4315 60 4 46.5685 4 30Z" fill="white"/>
<path fill-rule="evenodd" clip-rule="evenodd" d="M38.884 17.682C40.0294 16.2085 40.8977 14.1259 40.5836 12C38.7115 12.1297 36.5233 13.3233 35.2464 14.8791C34.0825 16.2888 33.1259 18.3859 33.4995 20.4212C35.5462 20.485 37.6584 19.2625 38.884 17.682ZM49 37.6792C48.1809 39.4985 47.7868 40.3114 46.7317 41.9228C45.2599 44.1721 43.1845 46.973 40.6103 46.9936C38.3256 47.0183 37.7365 45.5015 34.6347 45.5201C31.533 45.5365 30.8864 47.0224 28.5975 46.9997C26.0254 46.9771 24.0589 44.4499 22.587 42.2006C18.4692 35.9156 18.036 28.5378 20.5753 24.6132C22.3817 21.8268 25.231 20.1969 27.9078 20.1969C30.6318 20.1969 32.3459 21.6951 34.6019 21.6951C36.7901 21.6951 38.1224 20.1927 41.2734 20.1927C43.6587 20.1927 46.1857 21.4954 47.9839 23.7427C42.0883 26.982 43.0429 35.4217 49 37.6792Z" fill="#0B0B0A"/>
</g>
<defs>
<filter id="filter0_dd" x="0" y="0" width="68" height="68" filterUnits="userSpaceOnUse" color-interpolation-filters="sRGB">
<feFlood flood-opacity="0" result="BackgroundImageFix"/>
<feColorMatrix in="SourceAlpha" type="matrix" values="0 0 0 0 0 0 0 0 0 0 0 0 0 0 0 0 0 0 127 0"/>
<feOffset dy="4"/>
<feGaussianBlur stdDeviation="2"/>
<feColorMatrix type="matrix" values="0 0 0 0 0 0 0 0 0 0 0 0 0 0 0 0 0 0 0.25 0"/>
<feBlend mode="normal" in2="BackgroundImageFix" result="effect1_dropShadow"/>
<feColorMatrix in="SourceAlpha" type="matrix" values="0 0 0 0 0 0 0 0 0 0 0 0 0 0 0 0 0 0 127 0"/>
<feOffset dy="4"/>
<feGaussianBlur stdDeviation="2"/>
<feColorMatrix type="matrix" values="0 0 0 0 0 0 0 0 0 0 0 0 0 0 0 0 0 0 0.25 0"/>
<feBlend mode="normal" in2="effect1_dropShadow" result="effect2_dropShadow"/>
<feBlend mode="normal" in="SourceGraphic" in2="effect2_dropShadow" result="shape"/>
</filter>
</defs>
</svg>
