<svg width="21" height="21" viewBox="0 0 21 21" fill="none" xmlns="http://www.w3.org/2000/svg">
<path d="M20.8965 12.5272L21 9.07994L18.7962 9.01514C18.6581 8.25538 18.4112 7.50305 18.049 6.77969L19.7796 5.42619L17.6204 2.72058L15.89 4.07352C15.2728 3.56586 14.5902 3.15197 13.8655 2.83955L14.3129 0.699285L10.9021 0L10.4538 2.13887C9.66782 2.13999 8.87644 2.25042 8.10089 2.47647L7.05585 0.555117L3.9883 2.19052L5.03335 4.11215C4.41644 4.62808 3.88707 5.22267 3.45313 5.87101L1.40348 5.06339L0.115237 8.2677L2.16658 9.07658C2.03155 9.84753 2.00525 10.6384 2.0939 11.4279L0 12.1135L1.09326 15.3881L3.18717 14.7028C3.59721 15.4007 4.09577 16.0179 4.66134 16.5505L3.50318 18.4076L6.46723 20.2197L7.62793 18.3592C8.3752 18.6246 9.15895 18.7862 9.95429 18.8371L10.2727 21L13.7203 20.5016L13.4028 18.3413C13.7707 18.2073 14.1338 18.0461 14.4892 17.8566C14.845 17.6673 15.1808 17.4553 15.4964 17.2253L17.1433 18.6769L19.4604 16.1018L17.8123 14.6485C18.2075 13.9626 18.5016 13.2258 18.6893 12.4623L20.8965 12.5272ZM12.5953 14.3744C10.4346 15.5259 7.73072 14.7232 6.56804 12.5852C5.40437 10.4469 6.21541 7.76969 8.37605 6.61872C10.5356 5.46692 13.2393 6.2702 14.403 8.40851C15.5655 10.547 14.755 13.2228 12.5953 14.3744Z" fill="black"/>
</svg>
