<svg width="86" height="122" viewBox="0 0 86 122" fill="none" xmlns="http://www.w3.org/2000/svg">
<circle cx="43" cy="43" r="43" fill="#F0F0F0"/>
<path d="M26.48 114.18L29.0581 105.625H31.6675L27.7066 117H25.2612L21.3159 105.625H23.9175L26.48 114.18ZM35.49 117H33.2244V108.547H35.49V117ZM33.0916 106.359C33.0916 106.021 33.2035 105.742 33.4275 105.523C33.6567 105.305 33.9666 105.195 34.3572 105.195C34.7426 105.195 35.0499 105.305 35.2791 105.523C35.5082 105.742 35.6228 106.021 35.6228 106.359C35.6228 106.703 35.5056 106.984 35.2712 107.203C35.0421 107.422 34.7374 107.531 34.3572 107.531C33.977 107.531 33.6697 107.422 33.4353 107.203C33.2061 106.984 33.0916 106.703 33.0916 106.359ZM37.5156 112.711C37.5156 111.393 37.8099 110.344 38.3984 109.562C38.9922 108.781 39.8021 108.391 40.8281 108.391C41.651 108.391 42.3307 108.698 42.8672 109.312V105H45.1328V117H43.0938L42.9844 116.102C42.4219 116.805 41.6979 117.156 40.8125 117.156C39.8177 117.156 39.0182 116.766 38.4141 115.984C37.8151 115.198 37.5156 114.107 37.5156 112.711ZM39.7734 112.875C39.7734 113.667 39.9115 114.273 40.1875 114.695C40.4635 115.117 40.8646 115.328 41.3906 115.328C42.0885 115.328 42.5807 115.034 42.8672 114.445V111.109C42.5859 110.521 42.099 110.227 41.4062 110.227C40.3177 110.227 39.7734 111.109 39.7734 112.875ZM51.2834 117.156C50.0439 117.156 49.0334 116.776 48.2522 116.016C47.4761 115.255 47.0881 114.242 47.0881 112.977V112.758C47.0881 111.909 47.2522 111.151 47.5803 110.484C47.9084 109.812 48.372 109.297 48.9709 108.938C49.5751 108.573 50.2626 108.391 51.0334 108.391C52.1897 108.391 53.0985 108.755 53.76 109.484C54.4267 110.214 54.76 111.247 54.76 112.586V113.508H49.3772C49.4501 114.06 49.6689 114.503 50.0334 114.836C50.4032 115.169 50.8694 115.336 51.4319 115.336C52.3017 115.336 52.9814 115.021 53.4709 114.391L54.5803 115.633C54.2418 116.112 53.7834 116.487 53.2053 116.758C52.6272 117.023 51.9866 117.156 51.2834 117.156ZM51.0256 110.219C50.5777 110.219 50.2131 110.37 49.9319 110.672C49.6558 110.974 49.4788 111.406 49.4006 111.969H52.5413V111.789C52.5308 111.289 52.3954 110.904 52.135 110.633C51.8746 110.357 51.5048 110.219 51.0256 110.219ZM56.2075 112.695C56.2075 111.857 56.369 111.109 56.6919 110.453C57.0148 109.797 57.4783 109.289 58.0825 108.93C58.6919 108.57 59.3976 108.391 60.1997 108.391C61.3403 108.391 62.27 108.74 62.9888 109.438C63.7127 110.135 64.1164 111.083 64.1997 112.281L64.2153 112.859C64.2153 114.156 63.8533 115.198 63.1294 115.984C62.4054 116.766 61.4341 117.156 60.2153 117.156C58.9966 117.156 58.0226 116.766 57.2934 115.984C56.5695 115.203 56.2075 114.141 56.2075 112.797V112.695ZM58.4653 112.859C58.4653 113.661 58.6164 114.276 58.9184 114.703C59.2205 115.125 59.6528 115.336 60.2153 115.336C60.7622 115.336 61.1893 115.128 61.4966 114.711C61.8039 114.289 61.9575 113.617 61.9575 112.695C61.9575 111.909 61.8039 111.299 61.4966 110.867C61.1893 110.435 60.757 110.219 60.1997 110.219C59.6476 110.219 59.2205 110.435 58.9184 110.867C58.6164 111.294 58.4653 111.958 58.4653 112.859Z" fill="black"/>
<rect x="26" y="28" width="33" height="30" fill="black"/>
<path d="M66 51V35L50 43L66 51Z" fill="black"/>
</svg>
