<svg width="86" height="122" viewBox="0 0 86 122" fill="none" xmlns="http://www.w3.org/2000/svg">
<circle cx="43" cy="43" r="43" fill="#F0F0F0"/>
<path fill-rule="evenodd" clip-rule="evenodd" d="M25.7868 50.0098C25.6632 50.1183 25.5676 50.255 25.508 50.4083L21 62L32.8049 61.3636C33.0206 61.352 33.2271 61.2725 33.395 61.1364L65 35.5107L55.4052 24L25.7868 50.0098Z" fill="black"/>
<path fill-rule="evenodd" clip-rule="evenodd" d="M47.1421 30.0352L58.0704 42.3295L47.1421 30.0352Z" fill="black"/>
<path d="M47.1421 30.0352L58.0704 42.3295" stroke="#F0F0F0" stroke-width="3"/>
<path d="M36.61 107.523H33.1256V117H30.7819V107.523H27.3444V105.625H36.61V107.523ZM41.5028 117.156C40.2632 117.156 39.2528 116.776 38.4716 116.016C37.6955 115.255 37.3075 114.242 37.3075 112.977V112.758C37.3075 111.909 37.4716 111.151 37.7997 110.484C38.1278 109.812 38.5914 109.297 39.1903 108.938C39.7945 108.573 40.482 108.391 41.2528 108.391C42.4091 108.391 43.3179 108.755 43.9794 109.484C44.646 110.214 44.9794 111.247 44.9794 112.586V113.508H39.5966C39.6695 114.06 39.8882 114.503 40.2528 114.836C40.6226 115.169 41.0888 115.336 41.6513 115.336C42.521 115.336 43.2007 115.021 43.6903 114.391L44.7997 115.633C44.4611 116.112 44.0028 116.487 43.4247 116.758C42.8466 117.023 42.2059 117.156 41.5028 117.156ZM41.245 110.219C40.7971 110.219 40.4325 110.37 40.1513 110.672C39.8752 110.974 39.6981 111.406 39.62 111.969H42.7606V111.789C42.7502 111.289 42.6148 110.904 42.3544 110.633C42.094 110.357 41.7242 110.219 41.245 110.219ZM49.9972 111.07L51.4191 108.547H53.8331L51.4269 112.688L53.9347 117H51.5128L50.005 114.344L48.505 117H46.0753L48.5831 112.688L46.1847 108.547H48.6066L49.9972 111.07ZM58.1322 106.469V108.547H59.5775V110.203H58.1322V114.422C58.1322 114.734 58.1921 114.958 58.3119 115.094C58.4317 115.229 58.6608 115.297 58.9994 115.297C59.2494 115.297 59.4707 115.279 59.6634 115.242V116.953C59.2207 117.089 58.765 117.156 58.2963 117.156C56.7129 117.156 55.9056 116.357 55.8744 114.758V110.203H54.64V108.547H55.8744V106.469H58.1322Z" fill="black"/>
</svg>
