<svg width="86" height="122" viewBox="0 0 86 122" fill="none" xmlns="http://www.w3.org/2000/svg">
<circle cx="43" cy="43" r="43" fill="#F0F0F0"/>
<path d="M24.5659 112.992V117H22.2222V105.625H26.6597C27.5139 105.625 28.2639 105.781 28.9097 106.094C29.5607 106.406 30.0607 106.852 30.4097 107.43C30.7586 108.003 30.9331 108.656 30.9331 109.391C30.9331 110.505 30.5503 111.385 29.7847 112.031C29.0243 112.672 27.9696 112.992 26.6206 112.992H24.5659ZM24.5659 111.094H26.6597C27.2795 111.094 27.7508 110.948 28.0737 110.656C28.4019 110.365 28.5659 109.948 28.5659 109.406C28.5659 108.849 28.4019 108.398 28.0737 108.055C27.7456 107.711 27.2925 107.534 26.7144 107.523H24.5659V111.094ZM35.115 109.469C35.714 108.75 36.4666 108.391 37.3728 108.391C39.2061 108.391 40.1358 109.456 40.1619 111.586V117H37.9041V111.648C37.9041 111.164 37.7999 110.807 37.5916 110.578C37.3832 110.344 37.0369 110.227 36.5525 110.227C35.891 110.227 35.4119 110.482 35.115 110.992V117H32.8572V105H35.115V109.469ZM42.0234 112.695C42.0234 111.857 42.1849 111.109 42.5078 110.453C42.8307 109.797 43.2943 109.289 43.8984 108.93C44.5078 108.57 45.2135 108.391 46.0156 108.391C47.1562 108.391 48.0859 108.74 48.8047 109.438C49.5286 110.135 49.9323 111.083 50.0156 112.281L50.0312 112.859C50.0312 114.156 49.6693 115.198 48.9453 115.984C48.2214 116.766 47.25 117.156 46.0312 117.156C44.8125 117.156 43.8385 116.766 43.1094 115.984C42.3854 115.203 42.0234 114.141 42.0234 112.797V112.695ZM44.2812 112.859C44.2812 113.661 44.4323 114.276 44.7344 114.703C45.0365 115.125 45.4688 115.336 46.0312 115.336C46.5781 115.336 47.0052 115.128 47.3125 114.711C47.6198 114.289 47.7734 113.617 47.7734 112.695C47.7734 111.909 47.6198 111.299 47.3125 110.867C47.0052 110.435 46.5729 110.219 46.0156 110.219C45.4635 110.219 45.0365 110.435 44.7344 110.867C44.4323 111.294 44.2812 111.958 44.2812 112.859ZM54.635 106.469V108.547H56.0803V110.203H54.635V114.422C54.635 114.734 54.6949 114.958 54.8147 115.094C54.9345 115.229 55.1636 115.297 55.5022 115.297C55.7522 115.297 55.9735 115.279 56.1663 115.242V116.953C55.7235 117.089 55.2678 117.156 54.7991 117.156C53.2157 117.156 52.4084 116.357 52.3772 114.758V110.203H51.1428V108.547H52.3772V106.469H54.635ZM57.2622 112.695C57.2622 111.857 57.4236 111.109 57.7466 110.453C58.0695 109.797 58.533 109.289 59.1372 108.93C59.7466 108.57 60.4523 108.391 61.2544 108.391C62.395 108.391 63.3247 108.74 64.0434 109.438C64.7674 110.135 65.171 111.083 65.2544 112.281L65.27 112.859C65.27 114.156 64.908 115.198 64.1841 115.984C63.4601 116.766 62.4888 117.156 61.27 117.156C60.0513 117.156 59.0773 116.766 58.3481 115.984C57.6242 115.203 57.2622 114.141 57.2622 112.797V112.695ZM59.52 112.859C59.52 113.661 59.671 114.276 59.9731 114.703C60.2752 115.125 60.7075 115.336 61.27 115.336C61.8169 115.336 62.244 115.128 62.5513 114.711C62.8585 114.289 63.0122 113.617 63.0122 112.695C63.0122 111.909 62.8585 111.299 62.5513 110.867C62.244 110.435 61.8117 110.219 61.2544 110.219C60.7023 110.219 60.2752 110.435 59.9731 110.867C59.671 111.294 59.52 111.958 59.52 112.859Z" fill="black"/>
<rect x="23" y="29" width="40" height="30" fill="black"/>
<circle cx="43" cy="44" r="8" fill="white"/>
<circle cx="43" cy="44" r="4" fill="black"/>
<circle cx="55.5" cy="29.5" r="3.5" fill="black"/>
</svg>
