<svg width="60" height="60" viewBox="0 0 60 60" fill="none" xmlns="http://www.w3.org/2000/svg">
<path fill-rule="evenodd" clip-rule="evenodd" d="M0 30C0 13.4315 13.4315 0 30 0C46.5685 0 60 13.4315 60 30C60 46.5685 46.5685 60 30 60C13.4315 60 0 46.5685 0 30Z" fill="white"/>
<path fill-rule="evenodd" clip-rule="evenodd" d="M30.0001 20.8C32.8167 20.8 34.7167 22.0167 35.8001 23.0333L40.0334 18.9C37.4334 16.4833 34.0501 15 30.0001 15C24.1334 15 19.0667 18.3667 16.6001 23.2667L21.4501 27.0333C22.6667 23.4167 26.0334 20.8 30.0001 20.8Z" fill="#EA4335"/>
<path fill-rule="evenodd" clip-rule="evenodd" d="M44.4 30.3333C44.4 29.1 44.3 28.2 44.0833 27.2667H30V32.8333H38.2667C38.1 34.2167 37.2 36.3 35.2 37.7L39.9333 41.3667C42.7667 38.75 44.4 34.9 44.4 30.3333Z" fill="#4285F4"/>
<path fill-rule="evenodd" clip-rule="evenodd" d="M21.4667 32.9667C21.15 32.0333 20.9667 31.0333 20.9667 30C20.9667 28.9667 21.15 27.9667 21.45 27.0333L16.6 23.2667C15.5833 25.3 15 27.5833 15 30C15 32.4167 15.5833 34.7 16.6 36.7333L21.4667 32.9667Z" fill="#FBBC05"/>
<path fill-rule="evenodd" clip-rule="evenodd" d="M30 45C34.05 45 37.45 43.6667 39.9334 41.3667L35.2 37.7C33.9334 38.5833 32.2334 39.2 30 39.2C26.0334 39.2 22.6667 36.5833 21.4667 32.9667L16.6167 36.7333C19.0834 41.6333 24.1334 45 30 45Z" fill="#34A853"/>
</svg>
