<svg width="302" height="126" viewBox="0 0 302 126" fill="none" xmlns="http://www.w3.org/2000/svg">
<path d="M32.8741 51.4815C32.8741 56.613 31.7088 60.7121 29.3782 63.7787C27.0476 66.8249 23.9196 68.3479 19.9944 68.3479C16.3553 68.3479 13.442 67.152 11.2545 64.76V80.4918H3.80261V34.5538H10.6718L10.9785 37.9271C13.166 35.2694 16.1406 33.9405 19.9024 33.9405C23.9503 33.9405 27.1191 35.4533 29.4089 38.4791C31.7191 41.4844 32.8741 45.6652 32.8741 51.0215V51.4815ZM25.4529 50.8376C25.4529 47.5256 24.7885 44.8985 23.4596 42.9563C22.1512 41.0142 20.2703 40.0431 17.8171 40.0431C14.7709 40.0431 12.5834 41.3004 11.2545 43.815V58.5348C12.6038 61.1107 14.8118 62.3987 17.8784 62.3987C20.2499 62.3987 22.1001 61.4481 23.429 59.5467C24.7783 57.625 25.4529 54.7219 25.4529 50.8376ZM38.2824 50.8376C38.2824 47.5869 38.9264 44.6634 40.2144 42.067C41.5024 39.4502 43.3117 37.4467 45.6423 36.0565C47.9729 34.6458 50.6511 33.9405 53.6769 33.9405C58.1541 33.9405 61.783 35.3818 64.5634 38.2644C67.3642 41.147 68.8771 44.9701 69.1019 49.7336L69.1326 51.4815C69.1326 54.7526 68.4988 57.6761 67.2313 60.2521C65.9842 62.828 64.1851 64.8213 61.8341 66.232C59.5034 67.6426 56.8048 68.3479 53.7382 68.3479C49.0565 68.3479 45.305 66.7942 42.4837 63.6867C39.6829 60.5587 38.2824 56.3984 38.2824 51.2055V50.8376ZM45.7343 51.4815C45.7343 54.8957 46.4396 57.5739 47.8503 59.5161C49.2609 61.4378 51.2236 62.3987 53.7382 62.3987C56.2528 62.3987 58.2052 61.4174 59.5954 59.4547C61.0061 57.4921 61.7114 54.6197 61.7114 50.8376C61.7114 47.4847 60.9856 44.827 59.5341 42.8643C58.103 40.9017 56.1506 39.9204 53.6769 39.9204C51.244 39.9204 49.312 40.8915 47.881 42.8337C46.4499 44.7554 45.7343 47.638 45.7343 51.4815Z" fill="black"/>
<path d="M131.283 67.9441H123.831V34.7633H131.283V67.9441ZM123.371 26.1461C123.371 25.0012 123.729 24.0506 124.444 23.2941C125.18 22.5377 126.223 22.1595 127.572 22.1595C128.921 22.1595 129.964 22.5377 130.7 23.2941C131.436 24.0506 131.804 25.0012 131.804 26.1461C131.804 27.2705 131.436 28.2109 130.7 28.9674C129.964 29.7034 128.921 30.0714 127.572 30.0714C126.223 30.0714 125.18 29.7034 124.444 28.9674C123.729 28.2109 123.371 27.2705 123.371 26.1461ZM138.592 51.1084C138.592 45.9564 139.799 41.8472 142.211 38.7806C144.644 35.6935 147.864 34.15 151.871 34.15C155.653 34.15 158.628 35.4686 160.795 38.1059L161.132 34.7633H167.848V66.9321C167.848 71.2867 166.488 74.7213 163.769 77.2359C161.071 79.7506 157.421 81.0079 152.821 81.0079C150.389 81.0079 148.007 80.4968 145.676 79.4746C143.366 78.4728 141.608 77.1542 140.402 75.5186L143.928 71.0414C146.218 73.7604 149.039 75.12 152.392 75.12C154.866 75.12 156.818 74.4453 158.249 73.096C159.68 71.7671 160.396 69.8045 160.396 67.2081V64.9695C158.249 67.3614 155.387 68.5574 151.809 68.5574C147.925 68.5574 144.746 67.0139 142.272 63.9268C139.819 60.8398 138.592 56.5669 138.592 51.1084ZM146.014 51.7523C146.014 55.0847 146.688 57.7118 148.038 59.6336C149.407 61.5349 151.298 62.4855 153.711 62.4855C156.716 62.4855 158.944 61.1975 160.396 58.6216V44.0245C158.985 41.5098 156.777 40.2525 153.772 40.2525C151.319 40.2525 149.407 41.2236 148.038 43.1658C146.688 45.108 146.014 47.9702 146.014 51.7523ZM193.373 41.5712C192.392 41.4076 191.38 41.3258 190.337 41.3258C186.923 41.3258 184.623 42.6343 183.437 45.2511V67.9441H175.985V34.7633H183.1L183.284 38.4739C185.083 35.5913 187.577 34.15 190.767 34.15C191.83 34.15 192.709 34.2931 193.404 34.5793L193.373 41.5712ZM217.457 67.9441C217.13 67.3103 216.844 66.2779 216.599 64.8468C214.227 67.3205 211.324 68.5574 207.889 68.5574C204.557 68.5574 201.838 67.6068 199.732 65.7055C197.626 63.8042 196.574 61.4531 196.574 58.6522C196.574 55.1154 197.882 52.4066 200.499 50.5257C203.136 48.6244 206.898 47.6737 211.784 47.6737H216.353V45.4964C216.353 43.7791 215.873 42.4094 214.912 41.3872C213.951 40.3445 212.489 39.8232 210.527 39.8232C208.83 39.8232 207.44 40.2525 206.356 41.1112C205.272 41.9494 204.731 43.0227 204.731 44.3311H197.279C197.279 42.5116 197.882 40.8147 199.088 39.2405C200.294 37.6459 201.93 36.3988 203.995 35.4993C206.08 34.5997 208.4 34.15 210.956 34.15C214.84 34.15 217.938 35.1313 220.248 37.0939C222.558 39.0361 223.744 41.7756 223.805 45.3124V60.2775C223.805 63.2624 224.224 65.6441 225.062 67.4228V67.9441H217.457ZM209.269 62.5775C210.741 62.5775 212.121 62.2197 213.409 61.5042C214.718 60.7886 215.699 59.8278 216.353 58.6216V52.3657H212.336C209.576 52.3657 207.501 52.8461 206.111 53.807C204.72 54.7679 204.025 56.1274 204.025 57.8856C204.025 59.3167 204.496 60.4615 205.436 61.3202C206.397 62.1584 207.675 62.5775 209.269 62.5775ZM261.137 51.691C261.137 56.8225 259.972 60.9215 257.641 63.9882C255.31 67.0343 252.182 68.5574 248.257 68.5574C244.618 68.5574 241.705 67.3614 239.517 64.9695V80.7012H232.065V34.7633H238.935L239.241 38.1366C241.429 35.4788 244.403 34.15 248.165 34.15C252.213 34.15 255.382 35.6628 257.672 38.6886C259.982 41.6938 261.137 45.8747 261.137 51.231V51.691ZM253.716 51.047C253.716 47.7351 253.051 45.108 251.722 43.1658C250.414 41.2236 248.533 40.2525 246.08 40.2525C243.034 40.2525 240.846 41.5098 239.517 44.0245V58.7442C240.867 61.3202 243.074 62.6082 246.141 62.6082C248.513 62.6082 250.363 61.6575 251.692 59.7562C253.041 57.8345 253.716 54.9314 253.716 51.047ZM275.285 38.3819C277.718 35.5606 280.795 34.15 284.516 34.15C291.589 34.15 295.177 38.1877 295.279 46.2631V67.9441H287.827V46.5391C287.827 44.2494 287.327 42.6343 286.325 41.6938C285.344 40.733 283.892 40.2525 281.97 40.2525C278.985 40.2525 276.757 41.5814 275.285 44.2391V67.9441H267.833V20.8408H275.285V38.3819Z" fill="black"/>
<path d="M84.4195 0.471191C89.9114 0.471191 94.3635 4.92328 94.3635 10.4152V67.3578H74.4755V10.4152C74.4755 4.92328 78.9276 0.471191 84.4195 0.471191Z" fill="#3DB9BA"/>
<path d="M104.281 9.80005C109.773 9.80005 114.225 14.2521 114.225 19.7441V67.3707H94.3374V19.7441C94.3374 14.2521 98.7895 9.80005 104.281 9.80005Z" fill="#FF777B"/>
<path d="M140.039 113.988V120H136.523V102.938H143.18C144.461 102.938 145.586 103.172 146.555 103.641C147.531 104.109 148.281 104.777 148.805 105.645C149.328 106.504 149.59 107.484 149.59 108.586C149.59 110.258 149.016 111.578 147.867 112.547C146.727 113.508 145.145 113.988 143.121 113.988H140.039ZM140.039 111.141H143.18C144.109 111.141 144.816 110.922 145.301 110.484C145.793 110.047 146.039 109.422 146.039 108.609C146.039 107.773 145.793 107.098 145.301 106.582C144.809 106.066 144.129 105.801 143.262 105.785H140.039V111.141ZM155.881 120H152.483V107.32H155.881V120ZM152.284 104.039C152.284 103.531 152.452 103.113 152.788 102.785C153.131 102.457 153.596 102.293 154.182 102.293C154.76 102.293 155.221 102.457 155.565 102.785C155.909 103.113 156.081 103.531 156.081 104.039C156.081 104.555 155.905 104.977 155.553 105.305C155.21 105.633 154.753 105.797 154.182 105.797C153.612 105.797 153.151 105.633 152.799 105.305C152.456 104.977 152.284 104.555 152.284 104.039ZM164.47 117.504C165.095 117.504 165.603 117.332 165.993 116.988C166.384 116.645 166.587 116.188 166.603 115.617H169.779C169.771 116.477 169.536 117.266 169.075 117.984C168.615 118.695 167.982 119.25 167.177 119.648C166.38 120.039 165.497 120.234 164.529 120.234C162.716 120.234 161.286 119.66 160.24 118.512C159.193 117.355 158.669 115.762 158.669 113.73V113.508C158.669 111.555 159.189 109.996 160.228 108.832C161.267 107.668 162.693 107.086 164.505 107.086C166.091 107.086 167.361 107.539 168.314 108.445C169.275 109.344 169.763 110.543 169.779 112.043H166.603C166.587 111.387 166.384 110.855 165.993 110.449C165.603 110.035 165.087 109.828 164.447 109.828C163.657 109.828 163.06 110.117 162.654 110.695C162.255 111.266 162.056 112.195 162.056 113.484V113.836C162.056 115.141 162.255 116.078 162.654 116.648C163.052 117.219 163.657 117.504 164.47 117.504ZM176.832 114.914L175.613 116.133V120H172.226V102H175.613V111.973L176.269 111.129L179.516 107.32H183.582L179 112.605L183.98 120H180.09L176.832 114.914ZM196.786 115.207L199.13 107.32H202.763L197.665 121.969L197.384 122.637C196.626 124.293 195.376 125.121 193.634 125.121C193.142 125.121 192.642 125.047 192.134 124.898V122.332L192.65 122.344C193.29 122.344 193.767 122.246 194.079 122.051C194.4 121.855 194.65 121.531 194.829 121.078L195.228 120.035L190.786 107.32H194.431L196.786 115.207ZM203.898 113.543C203.898 112.285 204.14 111.164 204.625 110.18C205.109 109.195 205.804 108.434 206.711 107.895C207.625 107.355 208.683 107.086 209.886 107.086C211.597 107.086 212.992 107.609 214.07 108.656C215.156 109.703 215.761 111.125 215.886 112.922L215.91 113.789C215.91 115.734 215.367 117.297 214.281 118.477C213.195 119.648 211.738 120.234 209.91 120.234C208.082 120.234 206.621 119.648 205.527 118.477C204.441 117.305 203.898 115.711 203.898 113.695V113.543ZM207.285 113.789C207.285 114.992 207.511 115.914 207.965 116.555C208.418 117.188 209.066 117.504 209.91 117.504C210.73 117.504 211.371 117.191 211.832 116.566C212.293 115.934 212.523 114.926 212.523 113.543C212.523 112.363 212.293 111.449 211.832 110.801C211.371 110.152 210.722 109.828 209.886 109.828C209.058 109.828 208.418 110.152 207.965 110.801C207.511 111.441 207.285 112.438 207.285 113.789ZM226.104 118.711C225.268 119.727 224.112 120.234 222.635 120.234C221.276 120.234 220.237 119.844 219.518 119.062C218.807 118.281 218.444 117.137 218.428 115.629V107.32H221.815V115.512C221.815 116.832 222.416 117.492 223.62 117.492C224.768 117.492 225.557 117.094 225.987 116.297V107.32H229.385V120H226.198L226.104 118.711ZM239.579 110.496C239.118 110.434 238.712 110.402 238.36 110.402C237.079 110.402 236.239 110.836 235.841 111.703V120H232.454V107.32H235.653L235.747 108.832C236.427 107.668 237.368 107.086 238.571 107.086C238.946 107.086 239.298 107.137 239.626 107.238L239.579 110.496ZM255.092 116.496C255.092 116.082 254.885 115.758 254.471 115.523C254.065 115.281 253.408 115.066 252.502 114.879C249.487 114.246 247.979 112.965 247.979 111.035C247.979 109.91 248.444 108.973 249.373 108.223C250.311 107.465 251.533 107.086 253.041 107.086C254.651 107.086 255.936 107.465 256.897 108.223C257.866 108.98 258.35 109.965 258.35 111.176H254.963C254.963 110.691 254.807 110.293 254.494 109.98C254.182 109.66 253.694 109.5 253.03 109.5C252.459 109.5 252.018 109.629 251.705 109.887C251.393 110.145 251.237 110.473 251.237 110.871C251.237 111.246 251.412 111.551 251.764 111.785C252.123 112.012 252.725 112.211 253.569 112.383C254.412 112.547 255.123 112.734 255.701 112.945C257.491 113.602 258.385 114.738 258.385 116.355C258.385 117.512 257.889 118.449 256.897 119.168C255.905 119.879 254.623 120.234 253.053 120.234C251.991 120.234 251.045 120.047 250.217 119.672C249.397 119.289 248.752 118.77 248.283 118.113C247.815 117.449 247.58 116.734 247.58 115.969H250.791C250.823 116.57 251.045 117.031 251.459 117.352C251.873 117.672 252.428 117.832 253.123 117.832C253.772 117.832 254.26 117.711 254.588 117.469C254.924 117.219 255.092 116.895 255.092 116.496ZM264.665 120H261.267V107.32H264.665V120ZM261.067 104.039C261.067 103.531 261.235 103.113 261.571 102.785C261.915 102.457 262.38 102.293 262.966 102.293C263.544 102.293 264.005 102.457 264.349 102.785C264.692 103.113 264.864 103.531 264.864 104.039C264.864 104.555 264.688 104.977 264.337 105.305C263.993 105.633 263.536 105.797 262.966 105.797C262.395 105.797 261.934 105.633 261.583 105.305C261.239 104.977 261.067 104.555 261.067 104.039ZM267.453 113.566C267.453 111.59 267.894 110.016 268.777 108.844C269.668 107.672 270.882 107.086 272.421 107.086C273.656 107.086 274.675 107.547 275.48 108.469V102H278.878V120H275.82L275.656 118.652C274.812 119.707 273.726 120.234 272.398 120.234C270.906 120.234 269.707 119.648 268.8 118.477C267.902 117.297 267.453 115.66 267.453 113.566ZM270.839 113.812C270.839 115 271.046 115.91 271.46 116.543C271.875 117.176 272.476 117.492 273.265 117.492C274.312 117.492 275.05 117.051 275.48 116.168V111.164C275.058 110.281 274.328 109.84 273.289 109.84C271.656 109.84 270.839 111.164 270.839 113.812ZM287.854 120.234C285.994 120.234 284.479 119.664 283.307 118.523C282.143 117.383 281.561 115.863 281.561 113.965V113.637C281.561 112.363 281.807 111.227 282.299 110.227C282.791 109.219 283.486 108.445 284.385 107.906C285.291 107.359 286.322 107.086 287.479 107.086C289.213 107.086 290.576 107.633 291.569 108.727C292.569 109.82 293.069 111.371 293.069 113.379V114.762H284.994C285.104 115.59 285.432 116.254 285.979 116.754C286.533 117.254 287.233 117.504 288.076 117.504C289.381 117.504 290.401 117.031 291.135 116.086L292.799 117.949C292.291 118.668 291.604 119.23 290.736 119.637C289.869 120.035 288.908 120.234 287.854 120.234ZM287.467 109.828C286.795 109.828 286.248 110.055 285.826 110.508C285.412 110.961 285.147 111.609 285.029 112.453H289.74V112.184C289.725 111.434 289.522 110.855 289.131 110.449C288.74 110.035 288.186 109.828 287.467 109.828ZM295.692 118.336C295.692 117.797 295.872 117.359 296.231 117.023C296.598 116.688 297.055 116.52 297.602 116.52C298.157 116.52 298.614 116.688 298.973 117.023C299.341 117.359 299.524 117.797 299.524 118.336C299.524 118.867 299.345 119.301 298.985 119.637C298.626 119.965 298.165 120.129 297.602 120.129C297.048 120.129 296.591 119.965 296.231 119.637C295.872 119.301 295.692 118.867 295.692 118.336Z" fill="black"/>
</svg>
