<svg width="21" height="14" viewBox="0 0 21 14" fill="none" xmlns="http://www.w3.org/2000/svg">
<path d="M10.5001 4.19998C8.92032 4.19998 7.63647 5.4553 7.63647 6.99998C7.63647 8.54466 8.92032 9.79998 10.5001 9.79998C12.0799 9.79998 13.3637 8.54466 13.3637 6.99998C13.3637 5.4553 12.0798 4.19998 10.5001 4.19998Z" fill="#A1A1A1"/>
<path d="M10.5 0C5.72726 0 1.65138 2.90264 0 7C1.65138 11.0973 5.72726 14 10.5 14C15.2775 14 19.3486 11.0973 21 7C19.3486 2.90264 15.2775 0 10.5 0ZM10.5 11.6666C7.86546 11.6666 5.72726 9.57596 5.72726 6.99996C5.72726 4.42396 7.86546 2.33332 10.5 2.33332C13.1345 2.33332 15.2727 4.424 15.2727 7C15.2727 9.576 13.1345 11.6666 10.5 11.6666Z" fill="#A1A1A1"/>
</svg>
