<svg width="22" height="18" viewBox="0 0 22 18" fill="none" xmlns="http://www.w3.org/2000/svg">
<path d="M0 9C0 9.29683 0.130316 9.56991 0.367242 9.79552L8.2337 17.6675C8.47065 17.8931 8.71944 18 9.00375 18C9.58427 18 10.0463 17.5726 10.0463 16.9789C10.0463 16.6939 9.93969 16.409 9.75013 16.2309L7.09638 13.5237L3.10392 9.87863L5.97091 10.0567H20.9575C21.5735 10.0567 22 9.61742 22 9C22 8.38258 21.5735 7.94327 20.9575 7.94327H5.97091L3.11578 8.12137L7.09638 4.47625L9.75013 1.76913C9.93969 1.57915 10.0463 1.30607 10.0463 1.0211C10.0463 0.427439 9.58427 0 9.00375 0C8.71944 0 8.47065 0.0949821 8.21002 0.356191L0.367242 8.20448C0.130316 8.43007 0 8.70317 0 9Z" fill="black"/>
</svg>
